<?xml version="1.0" encoding="utf-8"?>
<!-- Generator: Adobe Illustrator 25.2.3, SVG Export Plug-In . SVG Version: 6.00 Build 0)  -->
<svg version="1.1" id="Calque_1" xmlns="http://www.w3.org/2000/svg" xmlns:xlink="http://www.w3.org/1999/xlink" x="0px" y="0px"
	 viewBox="0 0 357.27 154.36" style="enable-background:new 0 0 357.27 154.36;" xml:space="preserve">
<style type="text/css">
	.st0{fill:#1D1D1B;}
	.st1{fill:#E95A10;}
	.st2{fill:none;}
</style>
<g>
	<polygon class="st0" points="53.65,56.47 63.33,56.47 63.33,49.38 53.65,49.38 53.65,39.49 45.4,39.49 45.4,49.38 40.83,49.38 
		40.83,56.47 45.4,56.47 45.4,63.09 53.65,63.09 	"/>
	<path class="st0" d="M45.4,75.44c0,7.91,4.3,10.57,10.37,10.57c3.06,0,5.4-0.68,7.43-1.84v-6.76c-1.63,0.83-3.27,1.24-5.11,1.24
		c-2.79,0-4.43-1.3-4.43-4.51v-3.21H45.4V75.44z"/>
	<path class="st0" d="M92.11,57.43h0.48V48.7c-6.35-0.27-10.51,3.41-12.76,8.81v-8.13h-8.24v13.71h10.46
		C84.18,59.45,87.63,57.43,92.11,57.43"/>
	<path class="st0" d="M71.59,85.39h8.24V71.68c0-0.29,0.1-0.47,0.11-0.75h-8.34V85.39z"/>
	<path class="st0" d="M114.39,48.84c-5.86,0-9.75,1.22-13.7,3l2.24,6.62c3.29-1.37,6.29-2.25,10.3-2.25c5.38,0,8.37,2.48,8.73,6.89
		h8.11C129.7,54.12,124.65,48.84,114.39,48.84"/>
	<path class="st0" d="M122.23,72.36c0,4.51-4.08,7.57-9.54,7.57c-3.89,0-6.97-1.91-6.97-5.32v-0.14c0-1.46,0.66-2.62,1.67-3.54
		h-9.01c-0.42,1.22-0.83,2.44-0.83,3.95v0.14c0,7.22,6,11.11,12.82,11.11c5.44,0,9.2-2.26,11.65-5.17v4.43h8.19V70.93h-7.98V72.36z"
		/>
	<rect x="165.85" y="70.93" class="st0" width="8.25" height="14.46"/>
	<rect x="141.78" y="70.93" class="st0" width="8.24" height="14.46"/>
	<path class="st0" d="M158.15,56.14c4.3,0,6.85,2.58,7.45,6.95h8.51v-0.62c0-8.38-4.7-13.84-12.83-13.84
		c-5.59,0-8.92,2.94-11.25,6.35v-5.6h-8.24v13.71h8.55C151.07,58.76,154,56.14,158.15,56.14"/>
	<path class="st0" d="M200.43,75.5v0.14c0,2.38-2.05,3.87-5.6,3.87c-3.68,0-7.9-1.49-11.79-4.43l-3.68,5.6
		c4.49,3.54,10.16,5.38,15.27,5.38c7.51,0,13.36-3.75,13.36-11.32v-0.14c0-1.44-0.38-2.61-0.9-3.68h-13.19
		C197.47,72.02,200.43,73.06,200.43,75.5"/>
	<path class="st0" d="M188.69,59.06v-0.13c0-2.11,1.84-3.62,5.05-3.62c3.02,0,6.7,1.3,10.17,3.41l3.27-5.87
		c-3.83-2.52-8.73-4.08-13.24-4.08c-7.16,0-12.81,4.16-12.81,10.97v0.14c0,1.27,0.38,2.23,0.74,3.21h11.84
		C190.85,62.1,188.69,61,188.69,59.06"/>
	<path class="st1" d="M235.77,86.22c7.03,0,11.19-2.81,14.73-6.76l-4.98-4.9c-2.59,2.65-5.44,4.49-9.33,4.49
		c-5.13,0-8.87-3.44-10.17-8.11h-8.22C219.35,79.52,226.29,86.22,235.77,86.22"/>
	<path class="st1" d="M235.77,55.85c4.16,0,6.82,1.84,9.35,4.51l5.11-5.52c-3.35-3.68-7.57-6.21-14.4-6.21
		c-9.16,0-15.92,6.31-17.84,14.46h8.15C227.61,58.88,231.2,55.85,235.77,55.85"/>
	<path class="st1" d="M276.83,57.43h0.48V48.7c-6.35-0.27-10.51,3.41-12.76,8.81v-8.13h-8.24v13.71h10.46
		C268.9,59.45,272.35,57.43,276.83,57.43"/>
	<path class="st1" d="M256.31,85.39h8.24V71.68c0-0.29,0.1-0.47,0.11-0.75h-8.35V85.39z"/>
	<rect x="283.21" y="70.93" class="st1" width="8.25" height="14.46"/>
	<rect x="283.21" y="49.38" class="st1" width="8.25" height="13.71"/>
	<rect x="282.86" y="36.01" class="st1" width="8.87" height="7.84"/>
	<path class="st1" d="M302.19,75.44c0,7.91,4.3,10.57,10.36,10.57c3.06,0,5.4-0.68,7.43-1.84v-6.76c-1.63,0.83-3.27,1.24-5.11,1.24
		c-2.79,0-4.43-1.3-4.43-4.51v-3.21h-8.25V75.44z"/>
	<polygon class="st1" points="302.19,39.49 302.19,49.38 297.62,49.38 297.62,56.47 302.19,56.47 302.19,63.09 310.45,63.09 
		310.45,56.47 320.13,56.47 320.13,49.38 310.45,49.38 310.45,39.49 	"/>
	<rect x="37.14" y="63.09" class="st0" width="8.25" height="7.84"/>
	<path class="st0" d="M142.08,63.09h-8.55v7.84h8.24v-5.86C141.77,64.34,141.97,63.75,142.08,63.09"/>
	<path class="st1" d="M217.89,63.09h-8.15c-0.34,1.44-0.84,2.83-0.84,4.37v0.14c0,1.18,0.45,2.21,0.65,3.33h8.22
		c-0.31-1.11-0.61-2.24-0.61-3.48v-0.14C217.15,65.82,217.43,64.41,217.89,63.09"/>
	<rect x="293.94" y="63.09" class="st1" width="8.25" height="7.84"/>
</g>
<g>
	<path class="st0" d="M46.1,115.65v-5.64h-1.3v-1.23h1.3v-2.82h1.39v2.82h2.96v1.23h-2.96v5.46c0,1.14,0.63,1.55,1.57,1.55
		c0.47,0,0.87-0.09,1.36-0.33v1.19c-0.49,0.25-1.01,0.4-1.68,0.4C47.24,118.29,46.1,117.55,46.1,115.65"/>
	<path class="st0" d="M52.45,108.79h1.39v2.44c0.69-1.55,2.04-2.67,3.81-2.6v1.5h-0.11c-2.04,0-3.7,1.46-3.7,4.28v3.72h-1.39V108.79
		z"/>
	<path class="st0" d="M65.04,114.69v-0.9c-0.69-0.2-1.61-0.4-2.74-0.4c-1.75,0-2.73,0.76-2.73,1.93v0.04c0,1.17,1.08,1.86,2.35,1.86
		C63.63,117.22,65.04,116.18,65.04,114.69 M58.16,115.42v-0.04c0-1.97,1.63-3.02,3.99-3.02c1.19,0,2.04,0.16,2.87,0.4v-0.32
		c0-1.68-1.03-2.55-2.78-2.55c-1.1,0-1.97,0.29-2.84,0.69l-0.42-1.14c1.03-0.47,2.04-0.78,3.4-0.78c1.32,0,2.33,0.34,3.02,1.03
		c0.63,0.63,0.96,1.54,0.96,2.73v5.71h-1.34v-1.41c-0.65,0.85-1.73,1.61-3.38,1.61C59.91,118.33,58.16,117.33,58.16,115.42"/>
	<path class="st0" d="M68.86,108.79h1.39v1.63c0.61-1.01,1.59-1.83,3.2-1.83c2.26,0,3.58,1.52,3.58,3.74v5.8h-1.39v-5.45
		c0-1.73-0.94-2.82-2.58-2.82c-1.61,0-2.8,1.17-2.8,2.93v5.35h-1.39V108.79z"/>
	<path class="st0" d="M78.76,116.93l0.7-0.99c1.01,0.76,2.13,1.19,3.23,1.19c1.12,0,1.93-0.58,1.93-1.48v-0.04
		c0-0.94-1.1-1.3-2.33-1.64c-1.46-0.41-3.09-0.92-3.09-2.64v-0.04c0-1.61,1.34-2.67,3.18-2.67c1.14,0,2.4,0.4,3.36,1.03l-0.63,1.05
		c-0.87-0.56-1.86-0.9-2.76-0.9c-1.1,0-1.81,0.58-1.81,1.36v0.04c0,0.88,1.16,1.23,2.4,1.61c1.45,0.43,3,0.99,3,2.67v0.04
		c0,1.77-1.46,2.8-3.32,2.8C81.28,118.31,79.8,117.78,78.76,116.93"/>
	<path class="st0" d="M88.6,110.02h-1.28v-1.21h1.28v-0.81c0-1.07,0.29-1.88,0.81-2.4c0.47-0.47,1.16-0.72,2-0.72
		c0.65,0,1.08,0.07,1.54,0.23v1.21c-0.51-0.15-0.88-0.23-1.36-0.23c-1.08,0-1.63,0.65-1.63,1.99v0.76h2.96v1.19h-2.95v8.11H88.6
		V110.02z"/>
	<path class="st0" d="M100.91,112.94c-0.14-1.7-1.12-3.18-2.98-3.18c-1.63,0-2.86,1.36-3.04,3.18H100.91z M93.49,113.48v-0.04
		c0-2.69,1.9-4.86,4.48-4.86c2.76,0,4.35,2.2,4.35,4.93c0,0.18,0,0.29-0.02,0.45H94.9c0.2,2.02,1.63,3.16,3.29,3.16
		c1.28,0,2.18-0.52,2.94-1.32l0.87,0.78c-0.94,1.05-2.08,1.75-3.85,1.75C95.58,118.34,93.49,116.37,93.49,113.48"/>
	<path class="st0" d="M104.3,108.79h1.39v2.44c0.69-1.55,2.04-2.67,3.81-2.6v1.5h-0.11c-2.04,0-3.7,1.46-3.7,4.28v3.72h-1.39V108.79
		z"/>
	<path class="st0" d="M111.65,115.65v-5.64h-1.3v-1.23h1.3v-2.82h1.39v2.82H116v1.23h-2.96v5.46c0,1.14,0.63,1.55,1.57,1.55
		c0.47,0,0.87-0.09,1.36-0.33v1.19c-0.49,0.25-1.01,0.4-1.68,0.4C112.79,118.29,111.65,117.55,111.65,115.65"/>
	<path class="st0" d="M117.23,116.93l0.7-0.99c1.01,0.76,2.13,1.19,3.23,1.19c1.12,0,1.93-0.58,1.93-1.48v-0.04
		c0-0.94-1.1-1.3-2.33-1.64c-1.46-0.41-3.09-0.92-3.09-2.64v-0.04c0-1.61,1.34-2.67,3.18-2.67c1.14,0,2.4,0.4,3.36,1.03l-0.63,1.05
		c-0.87-0.56-1.86-0.9-2.76-0.9c-1.1,0-1.81,0.58-1.81,1.36v0.04c0,0.88,1.16,1.23,2.4,1.61c1.45,0.43,3,0.99,3,2.67v0.04
		c0,1.77-1.46,2.8-3.32,2.8C119.75,118.31,118.27,117.78,117.23,116.93"/>
	<path class="st0" d="M130.93,113.5v-0.04c0-2.64,2.06-4.88,4.79-4.88c1.77,0,2.87,0.74,3.74,1.66l-0.92,0.98
		c-0.74-0.78-1.57-1.41-2.84-1.41c-1.9,0-3.34,1.61-3.34,3.61v0.04c0,2.02,1.48,3.63,3.43,3.63c1.19,0,2.11-0.6,2.85-1.39l0.89,0.83
		c-0.94,1.05-2.06,1.81-3.81,1.81C132.99,118.34,130.93,116.12,130.93,113.5"/>
	<path class="st0" d="M141.36,108.79h1.39v2.44c0.69-1.55,2.04-2.67,3.81-2.6v1.5h-0.11c-2.04,0-3.7,1.46-3.7,4.28v3.72h-1.39
		V108.79z"/>
	<path class="st0" d="M148.35,108.79h1.39v9.34h-1.39V108.79z M148.26,105.21h1.59v1.54h-1.59V105.21z"/>
	<path class="st0" d="M153.01,115.65v-5.64h-1.3v-1.23h1.3v-2.82h1.39v2.82h2.96v1.23h-2.96v5.46c0,1.14,0.63,1.55,1.57,1.55
		c0.47,0,0.87-0.09,1.36-0.33v1.19c-0.49,0.25-1.01,0.4-1.68,0.4C154.14,118.29,153.01,117.55,153.01,115.65"/>
	<path class="st0" d="M159.49,108.79h1.39v9.34h-1.39V108.79z M159.4,105.21h1.59v1.54h-1.59V105.21z"/>
	<path class="st0" d="M171.21,113.47v-0.04c0-2.15-1.65-3.6-3.38-3.6c-1.81,0-3.29,1.34-3.29,3.6v0.04c0,2.2,1.54,3.61,3.29,3.61
		C169.56,117.08,171.21,115.62,171.21,113.47 M171.15,116.25c-0.76,1.12-1.86,2.08-3.58,2.08c-2.24,0-4.46-1.77-4.46-4.84v-0.04
		c0-3.05,2.22-4.86,4.46-4.86c1.73,0,2.85,0.94,3.58,1.99v-1.79h1.39v12.23h-1.39V116.25z"/>
	<path class="st0" d="M175.05,114.59v-5.8h1.39v5.46c0,1.73,0.94,2.82,2.58,2.82c1.59,0,2.8-1.17,2.8-2.93v-5.35h1.37v9.34h-1.37
		v-1.63c-0.63,1.01-1.59,1.83-3.2,1.83C176.37,118.33,175.05,116.81,175.05,114.59"/>
	<path class="st0" d="M192.71,112.94c-0.14-1.7-1.12-3.18-2.98-3.18c-1.63,0-2.86,1.36-3.04,3.18H192.71z M185.28,113.48v-0.04
		c0-2.69,1.9-4.86,4.48-4.86c2.76,0,4.35,2.2,4.35,4.93c0,0.18,0,0.29-0.02,0.45h-7.41c0.2,2.02,1.63,3.16,3.29,3.16
		c1.28,0,2.19-0.52,2.94-1.32l0.87,0.78c-0.94,1.05-2.08,1.75-3.85,1.75C187.38,118.34,185.28,116.37,185.28,113.48"/>
	<path class="st0" d="M195.32,116.93l0.7-0.99c1.01,0.76,2.13,1.19,3.23,1.19c1.12,0,1.93-0.58,1.93-1.48v-0.04
		c0-0.94-1.1-1.3-2.33-1.64c-1.46-0.41-3.09-0.92-3.09-2.64v-0.04c0-1.61,1.34-2.67,3.18-2.67c1.14,0,2.4,0.4,3.36,1.03l-0.63,1.05
		c-0.87-0.56-1.86-0.9-2.76-0.9c-1.1,0-1.81,0.58-1.81,1.36v0.04c0,0.88,1.16,1.23,2.4,1.61c1.45,0.43,3,0.99,3,2.67v0.04
		c0,1.77-1.46,2.8-3.32,2.8C197.85,118.31,196.37,117.78,195.32,116.93"/>
	<path class="st0" d="M215.78,114.69v-0.9c-0.69-0.2-1.61-0.4-2.75-0.4c-1.75,0-2.73,0.76-2.73,1.93v0.04
		c0,1.17,1.08,1.86,2.35,1.86C214.37,117.22,215.78,116.18,215.78,114.69 M208.9,115.42v-0.04c0-1.97,1.63-3.02,3.99-3.02
		c1.19,0,2.04,0.16,2.87,0.4v-0.32c0-1.68-1.03-2.55-2.78-2.55c-1.1,0-1.97,0.29-2.84,0.69l-0.42-1.14c1.03-0.47,2.04-0.78,3.4-0.78
		c1.32,0,2.33,0.34,3.02,1.03c0.63,0.63,0.96,1.54,0.96,2.73v5.71h-1.34v-1.41c-0.65,0.85-1.73,1.61-3.38,1.61
		C210.65,118.33,208.9,117.33,208.9,115.42"/>
	<path class="st0" d="M219.6,108.79h1.39v1.63c0.61-1.01,1.59-1.83,3.2-1.83c2.26,0,3.58,1.52,3.58,3.74v5.8h-1.39v-5.45
		c0-1.73-0.94-2.82-2.58-2.82c-1.61,0-2.8,1.17-2.8,2.93v5.35h-1.39V108.79z"/>
	<path class="st0" d="M237.82,113.02v-0.04c0-1.92-1.66-3.16-3.43-3.16c-1.77,0-3.23,1.23-3.23,3.14V113c0,1.88,1.5,3.18,3.23,3.18
		C236.16,116.18,237.82,114.89,237.82,113.02 M230.16,119.75l0.63-1.08c1.07,0.78,2.26,1.19,3.6,1.19c2.06,0,3.4-1.14,3.4-3.32v-1.1
		c-0.81,1.09-1.95,1.97-3.67,1.97c-2.24,0-4.39-1.68-4.39-4.37V113c0-2.73,2.17-4.41,4.39-4.41c1.75,0,2.89,0.87,3.65,1.88v-1.68
		h1.39v7.71c0,1.45-0.43,2.55-1.19,3.31c-0.83,0.83-2.08,1.25-3.56,1.25C232.85,121.05,231.41,120.62,230.16,119.75"/>
	<rect x="241.93" y="104.94" class="st0" width="1.39" height="13.19"/>
	<path class="st0" d="M253.83,113.5v-0.04c0-2.01-1.5-3.65-3.47-3.65c-2.02,0-3.41,1.64-3.41,3.61v0.04c0,2,1.48,3.63,3.45,3.63
		C252.43,117.1,253.83,115.47,253.83,113.5 M245.53,113.5v-0.04c0-2.64,2.06-4.88,4.88-4.88c2.8,0,4.86,2.2,4.86,4.84v0.04
		c0,2.64-2.08,4.88-4.9,4.88C247.57,118.34,245.53,116.14,245.53,113.5"/>
	<path class="st0" d="M265.32,113.48v-0.04c0-2.2-1.52-3.61-3.29-3.61c-1.73,0-3.38,1.46-3.38,3.6v0.04c0,2.17,1.64,3.61,3.38,3.61
		C263.84,117.08,265.32,115.74,265.32,113.48 M257.31,108.79h1.39v1.88c0.76-1.12,1.86-2.08,3.58-2.08c2.24,0,4.46,1.77,4.46,4.84
		v0.04c0,3.05-2.2,4.86-4.46,4.86c-1.73,0-2.85-0.94-3.58-1.99v4.68h-1.39V108.79z"/>
	<path class="st0" d="M268.85,104.94h1.39v5.47c0.61-1.01,1.59-1.83,3.2-1.83c2.26,0,3.58,1.52,3.58,3.74v5.8h-1.39v-5.46
		c0-1.73-0.94-2.82-2.58-2.82c-1.61,0-2.8,1.17-2.8,2.93v5.35h-1.39V104.94z"/>
	<path class="st0" d="M287.25,113.5v-0.04c0-2.01-1.5-3.65-3.47-3.65c-2.02,0-3.41,1.64-3.41,3.61v0.04c0,2,1.48,3.63,3.45,3.63
		C285.84,117.1,287.25,115.47,287.25,113.5 M278.94,113.5v-0.04c0-2.64,2.06-4.88,4.88-4.88c2.8,0,4.86,2.2,4.86,4.84v0.04
		c0,2.64-2.08,4.88-4.9,4.88C280.98,118.34,278.94,116.14,278.94,113.5"/>
	<path class="st0" d="M290.73,108.79h1.39v1.63c0.61-1.01,1.59-1.83,3.2-1.83c2.26,0,3.58,1.52,3.58,3.74v5.8h-1.39v-5.45
		c0-1.73-0.94-2.82-2.58-2.82c-1.61,0-2.8,1.17-2.8,2.93v5.35h-1.39V108.79z"/>
	<path class="st0" d="M308.25,112.94c-0.14-1.7-1.12-3.18-2.98-3.18c-1.62,0-2.85,1.36-3.03,3.18H308.25z M300.82,113.48v-0.04
		c0-2.69,1.9-4.86,4.48-4.86c2.76,0,4.35,2.2,4.35,4.93c0,0.18,0,0.29-0.02,0.45h-7.41c0.2,2.02,1.63,3.16,3.29,3.16
		c1.28,0,2.18-0.52,2.94-1.32l0.87,0.78c-0.94,1.05-2.08,1.75-3.85,1.75C302.92,118.34,300.82,116.37,300.82,113.48"/>
	<path class="st0" d="M310.86,116.93l0.7-0.99c1.01,0.76,2.13,1.19,3.23,1.19c1.12,0,1.93-0.58,1.93-1.48v-0.04
		c0-0.94-1.1-1.3-2.33-1.64c-1.46-0.41-3.09-0.92-3.09-2.64v-0.04c0-1.61,1.34-2.67,3.18-2.67c1.14,0,2.4,0.4,3.36,1.03l-0.63,1.05
		c-0.87-0.56-1.86-0.9-2.76-0.9c-1.1,0-1.81,0.58-1.81,1.36v0.04c0,0.88,1.16,1.23,2.4,1.61c1.45,0.43,3,0.99,3,2.67v0.04
		c0,1.77-1.46,2.8-3.32,2.8C313.39,118.31,311.91,117.78,310.86,116.93"/>
</g>
<g>
	<rect class="st2" width="357.27" height="36.01"/>
	<rect y="0" class="st2" width="37.14" height="154.36"/>
	<rect x="320.13" y="0" class="st2" width="37.14" height="154.36"/>
	<rect y="118.34" class="st2" width="357.27" height="36.01"/>
</g>
</svg>
